# xmcd
#
# Track frame offsets:
#	150
#	18431
#	34716
#	52950
#	74131
#	92123
#	109224
#	126652
#	144772
#	165299
#	183341
#	203284
#	220352
#	236961
#
# Disc length: 3402 seconds
#
# Revision: 0
# Processed by: cddbd v1.5.2PL0 Copyright (c) Steve Scherf et al.
# Submitted via: EasyCDDAExtractor 16.0.6.1
#
DISCID=c70d480e
DTITLE=Γλυκερία - Όμορφα τραγούδια της Γλυκερίας 2
DYEAR=2009
DGENRE=Ποικίλη
TTITLE0=Γλυκερία - Ό,τι αγαπώ είναι δικό σου [Χριστόφ. Γερμενής-Γιάννης Καλπού
TTITLE0=ζος]
TTITLE1=Γλυκερία - Στ' απογεύματα τ' άδεια (ταγκό)[Γιώργος Σαρρής]
TTITLE2=Γλυκερία-Κίτρινα ποδήλατα - Κι όλο πετάω [Στέλιος Φωτιάδης]
TTITLE3=Γλυκερία-Ασλάνογλου Ηλίας - Μάσκα [Στέλιος Φωτιάδης-Σαράντης Αλιβιζάτο
TTITLE3=ς]
TTITLE4=Γλυκερία - Αναπνοή Ανατολή (Radio Edit)[Στέλιος Φωτιάδης]
TTITLE5=Γλυκερία - Βαριά ποτά, βαριά τσιγάρα [Στέργιος Παπαποστόλου]
TTITLE6=Γλυκερία - Δεν έχω πια δικαίωμα [Αντ. Βαρδής-Βασ. Γιαννόπουλος]
TTITLE7=Γλυκερία - Έφυγες και είσαι ακόμα εδώ [Στέλιος Φωτιάδης-Λευτ. Χαψιάδης
TTITLE7=]
TTITLE8=Γλυκερία-Atlas Natacha - Αγάπη χιόνι [Στέλ. Φωτιάδης-Πάνος Φαλάρας/Nat
TTITLE8=Atlas]
TTITLE9=Γλυκερία - Φεγγαράδες στις Κυκλάδες [Στέλιος Φωτιάδης-Χρ. Προμοίρας]
TTITLE10=Γλυκερία - Έκλαιγε μαζί μου το φεγγάρι [Αντώνης Βαρδής-Έλενα Αντωνίου
TTITLE10=]
TTITLE11=Γλυκερία - Πριν μού φύγεις ξανά [Αντώνης Βαρδής-Έλενα Αντωνίου]
TTITLE12=Γλυκερία - 3ος όροφος [Κώστας Σέγγης-Τάσος Βουγιατζής]
TTITLE13=Γλυκερία - Βροχή των αστεριών [Δημ. Παρασκευόπουλος-Μιχ. Φάβιος]
EXTD=
EXTT0=
EXTT1=
EXTT2=
EXTT3=
EXTT4=
EXTT5=
EXTT6=
EXTT7=
EXTT8=
EXTT9=
EXTT10=
EXTT11=
EXTT12=
EXTT13=
PLAYORDER=
